<svg width="10" height="10" viewBox="0 0 10 10" fill="none" xmlns="http://www.w3.org/2000/svg">
<path fill-rule="evenodd" clip-rule="evenodd" d="M9.74473 2.33224C9.54623 2.09804 9.25774 1.96334 8.95425 1.96334H3.58188C3.37489 1.96334 3.20689 2.13478 3.20689 2.34602C3.20689 2.55725 3.37489 2.72869 3.58188 2.72869H8.95425C9.07175 2.72869 9.14474 2.794 9.17774 2.83278C9.21074 2.87207 9.26374 2.95523 9.24674 3.07361L8.77225 6.42022C8.73475 6.68248 8.51076 6.88044 8.25077 6.88044H2.7954C2.51891 6.88044 2.29342 6.6687 2.27042 6.38807L1.78893 0.534696C1.77493 0.361217 1.64743 0.218862 1.47944 0.189269L0.438962 0.00507535C0.232467 -0.0285999 0.0404721 0.108652 0.00547297 0.317337C-0.0295261 0.525511 0.10697 0.723481 0.310965 0.759708L1.06595 0.892878L1.52293 6.45185C1.57893 7.1325 2.12592 7.64579 2.7954 7.64579H8.25077C8.88125 7.64579 9.42424 7.16617 9.51423 6.52992L9.98922 3.18331C10.0327 2.87615 9.94322 2.56644 9.74473 2.33224ZM1.95394 9.22751C1.95394 8.80147 2.29393 8.45451 2.71142 8.45451C3.12891 8.45451 3.4684 8.80147 3.4684 9.22751C3.4684 9.65355 3.12891 10 2.71142 10C2.29393 10 1.95394 9.65355 1.95394 9.22751ZM7.5804 9.22751C7.5804 8.80147 7.9199 8.45451 8.33739 8.45451C8.75487 8.45451 9.09487 8.80147 9.09487 9.22751C9.09487 9.65355 8.75487 10 8.33739 10C7.9199 10 7.5804 9.65355 7.5804 9.22751ZM7.82443 4.23212C7.82443 4.44336 7.65644 4.61479 7.44944 4.61479H6.06298C5.85548 4.61479 5.68799 4.44336 5.68799 4.23212C5.68799 4.02088 5.85548 3.84945 6.06298 3.84945H7.44944C7.65644 3.84945 7.82443 4.02088 7.82443 4.23212Z" fill="black"/>
</svg>
