<svg width="26" height="26" viewBox="0 0 26 26" fill="none" xmlns="http://www.w3.org/2000/svg">
<path d="M13 1.625C6.71836 1.625 1.625 6.71836 1.625 13C1.625 19.2816 6.71836 24.375 13 24.375C19.2816 24.375 24.375 19.2816 24.375 13C24.375 6.71836 19.2816 1.625 13 1.625ZM17.1996 17.3215L15.5238 17.3139L13 14.3051L10.4787 17.3113L8.80039 17.3189C8.68867 17.3189 8.59727 17.2301 8.59727 17.1158C8.59727 17.0676 8.61504 17.0219 8.64551 16.9838L11.9488 13.0482L8.64551 9.11523C8.61483 9.07802 8.5978 9.03143 8.59727 8.9832C8.59727 8.87148 8.68867 8.78008 8.80039 8.78008L10.4787 8.7877L13 11.7965L15.5213 8.79023L17.1971 8.78262C17.3088 8.78262 17.4002 8.87148 17.4002 8.98574C17.4002 9.03398 17.3824 9.07969 17.352 9.11777L14.0537 13.0508L17.3545 16.9863C17.385 17.0244 17.4027 17.0701 17.4027 17.1184C17.4027 17.2301 17.3113 17.3215 17.1996 17.3215Z" fill="#FF6600"/>
</svg>
