<svg width="13" height="18" viewBox="0 0 13 18" fill="none" xmlns="http://www.w3.org/2000/svg">
<path d="M1.96472 17.12C2.63277 17.12 3.56063 18 4.23176 18C5.04445 18 5.80162 17.12 6.49914 17.12C7.19667 17.12 7.95418 18 8.76653 18C9.43834 18 10.3655 17.12 11.0346 17.12C11.5936 17.12 12.5239 17.4955 13 17.7156C12.7892 13.7808 9.97031 11.1992 9.06302 9.32257H9.2416V7.25922H9.03285C9.46645 6.07485 10.2791 4.5043 9.89011 2.88388C9.89011 2.88388 9.8051 2.88422 9.66182 2.89213V0H9.24502V2.92893C8.51254 3.01181 7.31321 3.2515 6.49914 3.94823C5.68508 3.25116 4.48506 3.01181 3.75258 2.92893V0H3.33681V2.89248C3.19387 2.88457 3.10852 2.88422 3.10852 2.88422C2.7188 4.50464 3.53184 6.07485 3.96578 7.25956H3.75635V9.32292H3.93527C3.02832 11.1995 0.211485 13.7815 0 17.7156C0.476442 17.4948 1.40499 17.12 1.96472 17.12ZM8.89917 7.6461V8.93569H8.43576V8.93638C9.34203 10.6294 9.6584 13.505 9.6584 13.505L7.98022 14.1095C7.98022 14.1095 7.97885 11.7188 7.4085 9.23316C7.52092 9.12036 7.59256 8.9271 7.62684 8.70425L8.32265 10.2432C8.26301 9.65855 7.90447 9.00516 7.64157 8.58148C7.67037 8.25788 7.62821 7.89886 7.52161 7.6461H8.89917ZM5.91473 7.42876C6.15364 7.18906 6.98998 7.18906 7.22923 7.42876C7.47156 7.67154 7.62615 8.85041 7.22923 9.24829C6.99135 9.48661 6.15227 9.48661 5.91473 9.24829C5.47702 8.80914 5.69228 7.65194 5.91473 7.42876ZM4.79389 8.93569H4.09911V7.6461H5.62201C5.52192 7.88269 5.47771 8.21352 5.4969 8.5213C5.17847 8.97249 4.94985 9.45806 4.85319 9.65752L5.51781 8.70907C5.5418 8.86519 5.58396 9.00722 5.64635 9.11692C5.32689 10.1768 5.04445 12.0087 5.04445 12.0087L3.74606 11.7078C3.74606 11.7078 4.06278 10.1472 4.79389 8.93569Z" fill="#FF6600"/>
</svg>
