<svg width="20" height="20" viewBox="0 0 20 20" fill="none" xmlns="http://www.w3.org/2000/svg">
<path d="M18.1192 10.2758L10.6192 1.94251C10.3034 1.59084 9.69673 1.59084 9.3809 1.94251L1.8809 10.2758C1.77295 10.3955 1.70209 10.544 1.67694 10.7031C1.65179 10.8623 1.67343 11.0254 1.73923 11.1725C1.87257 11.4733 2.1709 11.6667 2.50007 11.6667H4.16673V17.5C4.16673 17.721 4.25453 17.933 4.41081 18.0893C4.56709 18.2455 4.77905 18.3333 5.00007 18.3333H7.50007C7.72108 18.3333 7.93304 18.2455 8.08932 18.0893C8.2456 17.933 8.3334 17.721 8.3334 17.5V14.1667H11.6667V17.5C11.6667 17.721 11.7545 17.933 11.9108 18.0893C12.0671 18.2455 12.2791 18.3333 12.5001 18.3333H15.0001C15.2211 18.3333 15.433 18.2455 15.5893 18.0893C15.7456 17.933 15.8334 17.721 15.8334 17.5V11.6667H17.5001C17.6615 11.6674 17.8196 11.6211 17.9551 11.5335C18.0906 11.4458 18.1978 11.3207 18.2634 11.1733C18.329 11.0258 18.3503 10.8625 18.3248 10.7031C18.2992 10.5438 18.2277 10.3953 18.1192 10.2758Z" fill="#FF6600"/>
</svg>
