<svg width="343" height="76" viewBox="0 0 343 76" fill="none" xmlns="http://www.w3.org/2000/svg">
<g clip-path="url(#clip0)">
<path fill-rule="evenodd" clip-rule="evenodd" d="M9.59802 35.6244L34.9006 35.4497L47.7031 13.6244L54.8816 38.3474L27.3671 54.2329L9.59802 35.6244Z" fill="#808282"/>
<path fill-rule="evenodd" clip-rule="evenodd" d="M25.6507 19.4282L54.141 38.775L28.1603 53.775L25.6507 19.4282Z" fill="#101A1A" fill-opacity="0.262839"/>
<path d="M7.23205 33.5263C8.18864 32.974 8.51639 31.7508 7.9641 30.7942C7.41182 29.8376 6.18864 29.5099 5.23205 30.0622C4.27547 30.6144 3.94772 31.8376 4.5 32.7942C5.05228 33.7508 6.27547 34.0786 7.23205 33.5263Z" fill="#5E6363"/>
<path d="M23.6506 15.9641C24.6072 15.4118 24.935 14.1886 24.3827 13.2321C23.8304 12.2755 22.6072 11.9477 21.6506 12.5C20.694 13.0523 20.3663 14.2755 20.9186 15.2321C21.4709 16.1886 22.694 16.5164 23.6506 15.9641Z" fill="#5E6363"/>
<path d="M47.0692 10.5263C48.0258 9.97398 48.3535 8.7508 47.8013 7.79422C47.249 6.83763 46.0258 6.50988 45.0692 7.06216C44.1126 7.61445 43.7849 8.83763 44.3372 9.79422C44.8894 10.7508 46.1126 11.0786 47.0692 10.5263Z" fill="#5E6363"/>
</g>
<path d="M52.9844 58.8789C52.668 61.5859 51.666 63.6777 49.9785 65.1543C48.3027 66.6191 46.0703 67.3516 43.2812 67.3516C40.2578 67.3516 37.832 66.2676 36.0039 64.0996C34.1875 61.9316 33.2793 59.0312 33.2793 55.3984V52.9375C33.2793 50.5586 33.7012 48.4668 34.5449 46.6621C35.4004 44.8574 36.6074 43.4746 38.166 42.5137C39.7246 41.541 41.5293 41.0547 43.5801 41.0547C46.2988 41.0547 48.4785 41.8164 50.1191 43.3398C51.7598 44.8516 52.7148 46.9492 52.9844 49.6328H49.5918C49.2988 47.5938 48.6602 46.1172 47.6758 45.2031C46.7031 44.2891 45.3379 43.832 43.5801 43.832C41.4238 43.832 39.7305 44.6289 38.5 46.2227C37.2812 47.8164 36.6719 50.084 36.6719 53.0254V55.5039C36.6719 58.2812 37.252 60.4902 38.4121 62.1309C39.5723 63.7715 41.1953 64.5918 43.2812 64.5918C45.1562 64.5918 46.5918 64.1699 47.5879 63.3262C48.5957 62.4707 49.2637 60.9883 49.5918 58.8789H52.9844ZM71.7402 60.3203H61.0176L58.6094 67H55.1289L64.9023 41.4062H67.8555L77.6465 67H74.1836L71.7402 60.3203ZM62.0371 57.543H70.7383L66.3789 45.5723L62.0371 57.543ZM88.6328 55.5918C85.7383 54.7598 83.6289 53.7402 82.3047 52.5332C80.9922 51.3145 80.3359 49.8145 80.3359 48.0332C80.3359 46.0176 81.1387 44.3535 82.7441 43.041C84.3613 41.7168 86.459 41.0547 89.0371 41.0547C90.7949 41.0547 92.3594 41.3945 93.7305 42.0742C95.1133 42.7539 96.1797 43.6914 96.9297 44.8867C97.6914 46.082 98.0723 47.3887 98.0723 48.8066H94.6797C94.6797 47.2598 94.1875 46.0469 93.2031 45.168C92.2188 44.2773 90.8301 43.832 89.0371 43.832C87.373 43.832 86.0723 44.2012 85.1348 44.9395C84.209 45.666 83.7461 46.6797 83.7461 47.9805C83.7461 49.0234 84.1855 49.9082 85.0645 50.6348C85.9551 51.3496 87.4609 52.0059 89.582 52.6035C91.7148 53.2012 93.3789 53.8633 94.5742 54.5898C95.7812 55.3047 96.6719 56.1426 97.2461 57.1035C97.832 58.0645 98.125 59.1953 98.125 60.4961C98.125 62.5703 97.3164 64.2344 95.6992 65.4883C94.082 66.7305 91.9199 67.3516 89.2129 67.3516C87.4551 67.3516 85.8145 67.0176 84.291 66.3496C82.7676 65.6699 81.5898 64.7441 80.7578 63.5723C79.9375 62.4004 79.5273 61.0703 79.5273 59.582H82.9199C82.9199 61.1289 83.4883 62.3535 84.625 63.2559C85.7734 64.1465 87.3027 64.5918 89.2129 64.5918C90.9941 64.5918 92.3594 64.2285 93.3086 63.502C94.2578 62.7754 94.7324 61.7852 94.7324 60.5312C94.7324 59.2773 94.293 58.3105 93.4141 57.6309C92.5352 56.9395 90.9414 56.2598 88.6328 55.5918ZM120.15 44.1836H111.924V67H108.566V44.1836H100.357V41.4062H120.15V44.1836ZM138.414 55.1699H127.322V64.2402H140.207V67H123.947V41.4062H140.031V44.1836H127.322V52.4102H138.414V55.1699ZM147.801 64.2402H159.93V67H144.408V41.4062H147.801V64.2402ZM191.535 58.8789C191.219 61.5859 190.217 63.6777 188.529 65.1543C186.854 66.6191 184.621 67.3516 181.832 67.3516C178.809 67.3516 176.383 66.2676 174.555 64.0996C172.738 61.9316 171.83 59.0312 171.83 55.3984V52.9375C171.83 50.5586 172.252 48.4668 173.096 46.6621C173.951 44.8574 175.158 43.4746 176.717 42.5137C178.275 41.541 180.08 41.0547 182.131 41.0547C184.85 41.0547 187.029 41.8164 188.67 43.3398C190.311 44.8516 191.266 46.9492 191.535 49.6328H188.143C187.85 47.5938 187.211 46.1172 186.227 45.2031C185.254 44.2891 183.889 43.832 182.131 43.832C179.975 43.832 178.281 44.6289 177.051 46.2227C175.832 47.8164 175.223 50.084 175.223 53.0254V55.5039C175.223 58.2812 175.803 60.4902 176.963 62.1309C178.123 63.7715 179.746 64.5918 181.832 64.5918C183.707 64.5918 185.143 64.1699 186.139 63.3262C187.146 62.4707 187.814 60.9883 188.143 58.8789H191.535ZM199.551 64.2402H211.68V67H196.158V41.4062H199.551V64.2402ZM234.057 55.0293C234.057 57.5371 233.635 59.7285 232.791 61.6035C231.947 63.4668 230.752 64.8906 229.205 65.875C227.658 66.8594 225.854 67.3516 223.791 67.3516C221.775 67.3516 219.988 66.8594 218.43 65.875C216.871 64.8789 215.658 63.4668 214.791 61.6387C213.936 59.7988 213.496 57.6719 213.473 55.2578V53.4121C213.473 50.9512 213.9 48.7773 214.756 46.8906C215.611 45.0039 216.818 43.5625 218.377 42.5664C219.947 41.5586 221.74 41.0547 223.756 41.0547C225.807 41.0547 227.611 41.5527 229.17 42.5488C230.74 43.5332 231.947 44.9688 232.791 46.8555C233.635 48.7305 234.057 50.916 234.057 53.4121V55.0293ZM230.699 53.377C230.699 50.3418 230.09 48.0156 228.871 46.3984C227.652 44.7695 225.947 43.9551 223.756 43.9551C221.623 43.9551 219.941 44.7695 218.711 46.3984C217.492 48.0156 216.865 50.2656 216.83 53.1484V55.0293C216.83 57.9707 217.445 60.2852 218.676 61.9727C219.918 63.6484 221.623 64.4863 223.791 64.4863C225.971 64.4863 227.658 63.6953 228.854 62.1133C230.049 60.5195 230.664 58.2402 230.699 55.2754V53.377ZM256.311 44.1836H248.084V67H244.727V44.1836H236.518V41.4062H256.311V44.1836ZM279.777 67H276.385V55.1699H263.482V67H260.107V41.4062H263.482V52.4102H276.385V41.4062H279.777V67ZM289.393 67H286.018V41.4062H289.393V67ZM315.25 67H311.857L298.973 47.2773V67H295.58V41.4062H298.973L311.893 61.2168V41.4062H315.25V67ZM340.141 63.6426C339.273 64.8848 338.061 65.8164 336.502 66.4375C334.955 67.0469 333.15 67.3516 331.088 67.3516C329.002 67.3516 327.15 66.8652 325.533 65.8926C323.916 64.9082 322.662 63.5137 321.771 61.709C320.893 59.9043 320.441 57.8125 320.418 55.4336V53.2012C320.418 49.3457 321.314 46.3574 323.107 44.2363C324.912 42.1152 327.443 41.0547 330.701 41.0547C333.373 41.0547 335.523 41.7402 337.152 43.1113C338.781 44.4707 339.777 46.4043 340.141 48.9121H336.766C336.133 45.5254 334.117 43.832 330.719 43.832C328.457 43.832 326.74 44.6289 325.568 46.2227C324.408 47.8047 323.822 50.1016 323.811 53.1133V55.2051C323.811 58.0762 324.467 60.3613 325.779 62.0605C327.092 63.748 328.867 64.5918 331.105 64.5918C332.371 64.5918 333.479 64.4512 334.428 64.1699C335.377 63.8887 336.162 63.4141 336.783 62.7461V56.998H330.859V54.2559H340.141V63.6426Z" fill="black"/>
<defs>
<clipPath id="clip0">
<rect width="50" height="39" fill="white" transform="translate(0 25) rotate(-30)"/>
</clipPath>
</defs>
</svg>
