<svg width="20" height="20" viewBox="0 0 20 20" fill="none" xmlns="http://www.w3.org/2000/svg">
<path d="M18.6899 12.344L16.9629 10.806C16.4629 10.361 16.4629 9.632 16.9629 9.187L18.6899 7.648C19.1899 7.203 19.0569 6.789 18.3939 6.724L16.1039 6.507C15.4419 6.445 15.0839 5.874 15.3129 5.241L16.5279 1.858C16.7559 1.223 16.4769 0.993004 15.9089 1.344L13.2079 3.014C13.0741 3.09783 12.9246 3.15341 12.7686 3.17733C12.6125 3.20126 12.4532 3.19301 12.3005 3.15312C12.1477 3.11322 12.0047 3.04251 11.8803 2.94533C11.7559 2.84814 11.6526 2.72655 11.5769 2.588L10.5989 0.842004C10.2699 0.254004 9.72693 0.252004 9.39193 0.834004L8.48293 2.414C8.14593 2.999 7.37493 3.247 6.76993 2.97L5.16993 2.236C4.56193 1.956 4.09693 2.278 4.13293 2.952L4.21893 4.567C4.25593 5.241 3.75793 5.934 3.11493 6.108L1.56993 6.522C0.927927 6.696 0.809927 7.202 1.30993 7.647L3.03693 9.186C3.53693 9.631 3.53693 10.36 3.03693 10.805L1.30993 12.344C0.809927 12.789 0.941927 13.221 1.60293 13.301L3.69793 13.555C4.35893 13.635 4.72693 14.225 4.51593 14.866L3.44193 18.124C3.23093 18.765 3.53193 19.013 4.10993 18.679L6.57293 17.253C6.86027 17.0939 7.19658 17.0475 7.51625 17.123C7.83593 17.1984 8.11603 17.3902 8.30193 17.661L9.32393 19.2C9.69593 19.759 10.2549 19.729 10.5639 19.132L11.4629 17.399C11.6126 17.1115 11.8686 16.8938 12.1765 16.7924C12.4844 16.6909 12.8197 16.7138 13.1109 16.856L14.8449 17.723C15.4429 18.02 15.9019 17.713 15.8659 17.041L15.7789 15.424C15.7439 14.75 16.2399 14.059 16.8849 13.885L18.4279 13.469C19.0719 13.295 19.1899 12.789 18.6899 12.344ZM10.9999 14H8.99993V12H10.9999V14ZM10.9999 11H8.99993V6H10.9999V11Z" fill="#FF6600"/>
</svg>
