<svg width="16" height="16" viewBox="0 0 16 16" fill="none" xmlns="http://www.w3.org/2000/svg">
<path d="M8.00003 3C9.03378 3 9.89722 2.19438 10 1.1875C10.0094 1.09375 9.90628 1 9.81253 1C9.76184 1.00005 9.7116 1.00959 9.66441 1.02813C9.65816 1.03063 9.00503 1.28125 8.00003 1.28125C6.99503 1.28125 6.34066 1.03125 6.33566 1.02813C6.2824 1.0096 6.22642 1.00009 6.17003 1H6.16816C6.1448 1.00124 6.12191 1.00707 6.10081 1.01717C6.0797 1.02727 6.0608 1.04144 6.04518 1.05886C6.02956 1.07628 6.01754 1.0966 6.00979 1.11868C6.00204 1.14075 5.99873 1.16414 6.00003 1.1875C6.10472 2.1925 6.96878 3 8.00003 3Z" fill="#FF6600"/>
<path d="M15.1654 2.80937L11.1251 1.39499C11.1078 1.38896 11.0894 1.3868 11.0712 1.38867C11.0529 1.39054 11.0354 1.39639 11.0196 1.40581C11.0039 1.41523 10.9905 1.42799 10.9803 1.44319C10.97 1.45838 10.9632 1.47564 10.9604 1.49374C10.8435 2.19408 10.482 2.83025 9.94021 3.28913C9.39839 3.748 8.71138 3.99983 8.00136 3.99983C7.29134 3.99983 6.60433 3.748 6.06251 3.28913C5.5207 2.83025 5.15919 2.19408 5.0423 1.49374C5.03956 1.47534 5.03274 1.45778 5.02235 1.44235C5.01196 1.42691 4.99825 1.414 4.98223 1.40453C4.96621 1.39507 4.94828 1.3893 4.92975 1.38765C4.91122 1.386 4.89255 1.38851 4.87511 1.39499L0.834798 2.80937C0.721712 2.84896 0.626602 2.92784 0.566781 3.03165C0.50696 3.13546 0.486406 3.2573 0.50886 3.37499L1.02855 6.12499C1.04855 6.22981 1.10156 6.32548 1.17983 6.39802C1.25809 6.47055 1.35751 6.51614 1.46355 6.52812L2.99105 6.70062C3.0534 6.70765 3.11083 6.73787 3.15194 6.78529C3.19304 6.8327 3.21481 6.89384 3.21292 6.95656L2.98386 14.4847C2.98082 14.5817 3.0061 14.6775 3.05659 14.7604C3.10709 14.8433 3.18063 14.9097 3.26824 14.9516C3.34106 14.9845 3.42021 15.001 3.50011 15H12.5001C12.58 15.001 12.6592 14.9845 12.732 14.9516C12.8196 14.9097 12.8931 14.8433 12.9436 14.7604C12.9941 14.6775 13.0194 14.5817 13.0164 14.4847L12.7873 6.95656C12.7854 6.89384 12.8072 6.8327 12.8483 6.78529C12.8894 6.73787 12.9468 6.70765 13.0092 6.70062L14.5367 6.52812C14.6427 6.51614 14.7421 6.47055 14.8204 6.39802C14.8987 6.32548 14.9517 6.22981 14.9717 6.12499L15.4914 3.37499C15.5138 3.2573 15.4933 3.13546 15.4334 3.03165C15.3736 2.92784 15.2785 2.84896 15.1654 2.80937Z" fill="#FF6600"/>
</svg>
